<svg width="48" height="48" viewBox="0 0 48 48" fill="none" xmlns="http://www.w3.org/2000/svg">
<rect width="48" height="48" rx="5" fill="#86B887"/>
<path fill-rule="evenodd" clip-rule="evenodd" d="M15.228 12.2143C15.228 9.7705 16.205 7.42681 17.9442 5.6988C19.6834 3.97079 22.0422 3 24.5017 3C26.9613 3 29.3201 3.97079 31.0592 5.6988C32.7984 7.42681 33.7754 9.7705 33.7754 12.2143C33.7754 14.6581 32.7984 17.0017 31.0592 18.7298C29.3201 20.4578 26.9613 21.4286 24.5017 21.4286C22.0422 21.4286 19.6834 20.4578 17.9442 18.7298C16.205 17.0017 15.228 14.6581 15.228 12.2143ZM7.50196 41.0959C7.57145 36.6618 9.39305 32.4326 12.5736 29.3213C15.7541 26.21 20.0384 24.4661 24.5017 24.4661C28.965 24.4661 33.2493 26.21 36.4299 29.3213C39.6104 32.4326 41.432 36.6618 41.5015 41.0959C41.5068 41.3944 41.4245 41.688 41.2645 41.9408C41.1046 42.1935 40.874 42.3945 40.6009 42.519C35.5501 44.8199 30.058 46.0074 24.5017 46C18.7602 46 13.3052 44.755 8.40254 42.519C8.12945 42.3945 7.89882 42.1935 7.73887 41.9408C7.57892 41.688 7.49659 41.3944 7.50196 41.0959Z" fill="#22482E"/>
</svg>
