<svg width="48" height="48" viewBox="0 0 48 48" fill="none" xmlns="http://www.w3.org/2000/svg">
<rect width="48" height="48" rx="5" fill="#86B887"/>
<path d="M13.5 6V10.5M34.5 6V10.5M6 37.5V15C6 13.8065 6.47411 12.6619 7.31802 11.818C8.16193 10.9741 9.30653 10.5 10.5 10.5H37.5C38.6935 10.5 39.8381 10.9741 40.682 11.818C41.5259 12.6619 42 13.8065 42 15V37.5M6 37.5C6 38.6935 6.47411 39.8381 7.31802 40.682C8.16193 41.5259 9.30653 42 10.5 42H37.5C38.6935 42 39.8381 41.5259 40.682 40.682C41.5259 39.8381 42 38.6935 42 37.5M6 37.5V22.5C6 21.3065 6.47411 20.1619 7.31802 19.318C8.16193 18.4741 9.30653 18 10.5 18H37.5C38.6935 18 39.8381 18.4741 40.682 19.318C41.5259 20.1619 42 21.3065 42 22.5V37.5M24 25.5H24.016V25.516H24V25.5ZM24 30H24.016V30.016H24V30ZM24 34.5H24.016V34.516H24V34.5ZM19.5 30H19.516V30.016H19.5V30ZM19.5 34.5H19.516V34.516H19.5V34.5ZM15 30H15.016V30.016H15V30ZM15 34.5H15.016V34.516H15V34.5ZM28.5 25.5H28.516V25.516H28.5V25.5ZM28.5 30H28.516V30.016H28.5V30ZM28.5 34.5H28.516V34.516H28.5V34.5ZM33 25.5H33.016V25.516H33V25.5ZM33 30H33.016V30.016H33V30Z" stroke="#22482E" stroke-width="1.5" stroke-linecap="round" stroke-linejoin="round"/>
</svg>
