<svg width="48" height="48" viewBox="0 0 48 48" fill="none" xmlns="http://www.w3.org/2000/svg">
<rect width="48" height="48" rx="5" fill="#86B887"/>
<path fill-rule="evenodd" clip-rule="evenodd" d="M32.9999 7.5C33.7955 7.5 34.5586 7.81607 35.1212 8.37868C35.6838 8.94129 35.9999 9.70435 35.9999 10.5V37.5C35.9999 38.2957 35.6838 39.0587 35.1212 39.6213C34.5586 40.1839 33.7955 40.5 32.9999 40.5H20.9999C20.2043 40.5 19.4412 40.1839 18.8786 39.6213C18.316 39.0587 17.9999 38.2957 17.9999 37.5V30C17.9999 29.6022 17.8419 29.2206 17.5606 28.9393C17.2793 28.658 16.8977 28.5 16.4999 28.5C16.1021 28.5 15.7205 28.658 15.4392 28.9393C15.1579 29.2206 14.9999 29.6022 14.9999 30V37.5C14.9999 39.0913 15.632 40.6174 16.7573 41.7426C17.8825 42.8679 19.4086 43.5 20.9999 43.5H32.9999C34.5912 43.5 36.1173 42.8679 37.2425 41.7426C38.3678 40.6174 38.9999 39.0913 38.9999 37.5V10.5C38.9999 8.9087 38.3678 7.38258 37.2425 6.25736C36.1173 5.13214 34.5912 4.5 32.9999 4.5H20.9999C19.4086 4.5 17.8825 5.13214 16.7573 6.25736C15.632 7.38258 14.9999 8.9087 14.9999 10.5V18C14.9999 18.3978 15.1579 18.7794 15.4392 19.0607C15.7205 19.342 16.1021 19.5 16.4999 19.5C16.8977 19.5 17.2793 19.342 17.5606 19.0607C17.8419 18.7794 17.9999 18.3978 17.9999 18V10.5C17.9999 9.70435 18.316 8.94129 18.8786 8.37868C19.4412 7.81607 20.2043 7.5 20.9999 7.5H32.9999ZM11.5599 16.94C11.2787 16.6591 10.8974 16.5013 10.4999 16.5013C10.1024 16.5013 9.72115 16.6591 9.4399 16.94L3.4399 22.94C3.159 23.2213 3.00122 23.6025 3.00122 24C3.00122 24.3975 3.159 24.7787 3.4399 25.06L9.4399 31.06C9.72425 31.325 10.1003 31.4692 10.4889 31.4624C10.8775 31.4555 11.2483 31.2981 11.5231 31.0232C11.798 30.7484 11.9554 30.3776 11.9623 29.989C11.9691 29.6004 11.8249 29.2243 11.5599 28.94L8.1199 25.5H29.9999C30.3977 25.5 30.7793 25.342 31.0606 25.0607C31.3419 24.7794 31.4999 24.3978 31.4999 24C31.4999 23.6022 31.3419 23.2206 31.0606 22.9393C30.7793 22.658 30.3977 22.5 29.9999 22.5H8.1199L11.5599 19.06C11.8408 18.7787 11.9986 18.3975 11.9986 18C11.9986 17.6025 11.8408 17.2213 11.5599 16.94Z" fill="#22482E"/>
</svg>
