<svg width="48" height="48" viewBox="0 0 48 48" fill="none" xmlns="http://www.w3.org/2000/svg">
<rect width="48" height="48" rx="5" fill="#86B887"/>
<path d="M31.5 12C31.5 13.9891 30.7098 15.8968 29.3033 17.3033C27.8967 18.7098 25.9891 19.5 24 19.5C22.0108 19.5 20.1032 18.7098 18.6967 17.3033C17.2901 15.8968 16.5 13.9891 16.5 12C16.5 10.0109 17.2901 8.10322 18.6967 6.6967C20.1032 5.29018 22.0108 4.5 24 4.5C25.9891 4.5 27.8967 5.29018 29.3033 6.6967C30.7098 8.10322 31.5 10.0109 31.5 12ZM9.00195 40.236C9.06622 36.3007 10.6746 32.5483 13.4803 29.7881C16.286 27.0279 20.0641 25.4809 24 25.4809C27.9358 25.4809 31.7139 27.0279 34.5196 29.7881C37.3253 32.5483 38.9337 36.3007 38.998 40.236C34.2927 42.3935 29.1762 43.507 24 43.5C18.648 43.5 13.568 42.332 9.00195 40.236Z" stroke="#22482E" stroke-width="1.5" stroke-linecap="round" stroke-linejoin="round"/>
</svg>
