<svg width="48" height="48" viewBox="0 0 48 48" fill="none" xmlns="http://www.w3.org/2000/svg">
<rect width="48" height="48" rx="5" fill="#86B887"/>
<path d="M22.94 7.68201C23.2213 7.40111 23.6025 7.24333 24 7.24333C24.3975 7.24333 24.7788 7.40111 25.06 7.68201L42.44 25.062C42.5784 25.2052 42.744 25.3194 42.9271 25.3979C43.1101 25.4765 43.3069 25.5177 43.5061 25.5194C43.7053 25.521 43.9028 25.483 44.0871 25.4075C44.2714 25.332 44.4388 25.2205 44.5796 25.0796C44.7204 24.9387 44.8317 24.7712 44.907 24.5868C44.9823 24.4024 45.0202 24.2049 45.0184 24.0057C45.0166 23.8065 44.9751 23.6097 44.8964 23.4267C44.8177 23.2438 44.7033 23.0783 44.56 22.94L27.182 5.56001C26.7641 5.14214 26.2681 4.81067 25.7221 4.58452C25.1761 4.35837 24.591 4.24197 24 4.24197C23.4091 4.24197 22.8239 4.35837 22.2779 4.58452C21.732 4.81067 21.2359 5.14214 20.818 5.56001L3.43801 22.94C3.29481 23.0785 3.18062 23.244 3.10209 23.4271C3.02356 23.6101 2.98228 23.807 2.98064 24.0061C2.97901 24.2053 3.01705 24.4028 3.09256 24.5871C3.16807 24.7714 3.27953 24.9388 3.42043 25.0796C3.56134 25.2204 3.72887 25.3317 3.91324 25.407C4.09762 25.4823 4.29516 25.5202 4.49433 25.5184C4.69349 25.5166 4.8903 25.4751 5.07327 25.3964C5.25624 25.3177 5.4217 25.2033 5.56001 25.06L22.94 7.68201Z" fill="#22482E"/>
<path d="M24 9L40.318 25.318C40.378 25.378 40.438 25.434 40.5 25.49V37.886C40.5 39.956 38.82 41.636 36.75 41.636H30C29.6022 41.636 29.2206 41.478 28.9393 41.1967C28.658 40.9154 28.5 40.5338 28.5 40.136V31.136C28.5 30.7382 28.342 30.3566 28.0607 30.0753C27.7794 29.794 27.3978 29.636 27 29.636H21C20.6022 29.636 20.2206 29.794 19.9393 30.0753C19.658 30.3566 19.5 30.7382 19.5 31.136V40.136C19.5 40.5338 19.342 40.9154 19.0607 41.1967C18.7794 41.478 18.3978 41.636 18 41.636H11.25C10.2554 41.636 9.30161 41.2409 8.59835 40.5376C7.89509 39.8344 7.5 38.8806 7.5 37.886V25.49C7.56222 25.4343 7.62291 25.377 7.682 25.318L24 9Z" fill="#22482E"/>
</svg>
