<svg width="48" height="48" viewBox="0 0 48 48" fill="none" xmlns="http://www.w3.org/2000/svg">
<rect width="48" height="48" rx="5" fill="#86B887"/>
<path fill-rule="evenodd" clip-rule="evenodd" d="M16.5 13.5C16.5 11.5109 17.2902 9.60322 18.6967 8.1967C20.1032 6.79018 22.0109 6 24 6C25.9891 6 27.8968 6.79018 29.3033 8.1967C30.7098 9.60322 31.5 11.5109 31.5 13.5C31.5 15.4891 30.7098 17.3968 29.3033 18.8033C27.8968 20.2098 25.9891 21 24 21C22.0109 21 20.1032 20.2098 18.6967 18.8033C17.2902 17.3968 16.5 15.4891 16.5 13.5ZM31.5 19.5C31.5 17.9087 32.1321 16.3826 33.2574 15.2574C34.3826 14.1321 35.9087 13.5 37.5 13.5C39.0913 13.5 40.6174 14.1321 41.7426 15.2574C42.8679 16.3826 43.5 17.9087 43.5 19.5C43.5 21.0913 42.8679 22.6174 41.7426 23.7426C40.6174 24.8679 39.0913 25.5 37.5 25.5C35.9087 25.5 34.3826 24.8679 33.2574 23.7426C32.1321 22.6174 31.5 21.0913 31.5 19.5ZM4.5 19.5C4.5 17.9087 5.13214 16.3826 6.25736 15.2574C7.38258 14.1321 8.9087 13.5 10.5 13.5C12.0913 13.5 13.6174 14.1321 14.7426 15.2574C15.8679 16.3826 16.5 17.9087 16.5 19.5C16.5 21.0913 15.8679 22.6174 14.7426 23.7426C13.6174 24.8679 12.0913 25.5 10.5 25.5C8.9087 25.5 7.38258 24.8679 6.25736 23.7426C5.13214 22.6174 4.5 21.0913 4.5 19.5ZM12.62 30.234C13.8399 28.322 15.5222 26.7485 17.5112 25.6589C19.5003 24.5693 21.732 23.9987 24 24C25.8996 23.9983 27.7782 24.3978 29.5128 25.1723C31.2473 25.9469 32.7988 27.0791 34.0655 28.4947C35.3322 29.9104 36.2856 31.5776 36.8633 33.3873C37.4411 35.197 37.6301 37.1082 37.418 38.996C37.3921 39.2305 37.3112 39.4556 37.1819 39.653C37.0526 39.8504 36.8786 40.0145 36.674 40.132C32.8171 42.345 28.4467 43.5064 24 43.5C19.39 43.5 15.06 42.276 11.326 40.132C11.1214 40.0145 10.9474 39.8504 10.8181 39.653C10.6888 39.4556 10.6079 39.2305 10.582 38.996C10.2461 35.9292 10.9649 32.8396 12.62 30.236V30.234Z" fill="#22482E"/>
<path d="M10.1639 28.508C8.19143 31.5528 7.27243 35.1606 7.54792 38.778C6.34693 38.5959 5.16573 38.3013 4.01992 37.898L3.78992 37.818C3.58471 37.7452 3.40502 37.6144 3.27261 37.4415C3.14021 37.2686 3.06077 37.0611 3.04392 36.844L3.02392 36.602C2.94313 35.5979 3.06543 34.5879 3.38353 33.6321C3.70162 32.6763 4.20899 31.7944 4.87536 31.039C5.54174 30.2836 6.35345 29.6702 7.26207 29.2353C8.1707 28.8005 9.15761 28.5531 10.1639 28.508ZM40.4519 38.778C40.7274 35.1606 39.8084 31.5528 37.8359 28.508C38.8422 28.5531 39.8291 28.8005 40.7378 29.2353C41.6464 29.6702 42.4581 30.2836 43.1245 31.039C43.7908 31.7944 44.2982 32.6763 44.6163 33.6321C44.9344 34.5879 45.0567 35.5979 44.9759 36.602L44.9559 36.844C44.9387 37.0607 44.8591 37.2679 44.7267 37.4403C44.5943 37.6128 44.4148 37.7433 44.2099 37.816L43.9799 37.896C42.8459 38.296 41.6679 38.594 40.4519 38.778Z" fill="#22482E"/>
</svg>
