<svg width="48" height="48" viewBox="0 0 48 48" fill="none" xmlns="http://www.w3.org/2000/svg">
<rect width="48" height="48" rx="5" fill="#86B887"/>
<path d="M15 16.5H33M15 22.5H24M4.5 25.52C4.5 28.72 6.746 31.508 9.914 31.974C12.172 32.306 14.454 32.56 16.76 32.732C17.46 32.784 18.1 33.152 18.49 33.734L24 42L29.51 33.734C29.7033 33.4465 29.9596 33.2069 30.2593 33.0333C30.5591 32.8597 30.8945 32.7566 31.24 32.732C33.5303 32.561 35.8138 32.3082 38.086 31.974C41.254 31.508 43.5 28.722 43.5 25.518V13.482C43.5 10.278 41.254 7.492 38.086 7.026C33.4219 6.34143 28.7141 5.99852 24 6C19.216 6 14.512 6.35 9.914 7.026C6.746 7.492 4.5 10.28 4.5 13.482V25.518V25.52Z" stroke="#22482E" stroke-width="1.5" stroke-linecap="round" stroke-linejoin="round"/>
</svg>
