<svg width="48" height="48" viewBox="0 0 48 48" fill="none" xmlns="http://www.w3.org/2000/svg">
<rect width="48" height="48" rx="5" fill="#22482E"/>
<path d="M21 12H40.5H21ZM21 12C21 12.7956 20.6839 13.5587 20.1213 14.1213C19.5587 14.6839 18.7956 15 18 15C17.2044 15 16.4413 14.6839 15.8787 14.1213C15.3161 13.5587 15 12.7956 15 12M21 12C21 11.2044 20.6839 10.4413 20.1213 9.87868C19.5587 9.31607 18.7956 9 18 9C17.2044 9 16.4413 9.31607 15.8787 9.87868C15.3161 10.4413 15 11.2044 15 12M7.5 12H15H7.5ZM21 36H40.5H21ZM21 36C21 36.7956 20.6839 37.5587 20.1213 38.1213C19.5587 38.6839 18.7956 39 18 39C17.2044 39 16.4413 38.6839 15.8787 38.1213C15.3161 37.5587 15 36.7956 15 36M21 36C21 35.2044 20.6839 34.4413 20.1213 33.8787C19.5587 33.3161 18.7956 33 18 33C17.2044 33 16.4413 33.3161 15.8787 33.8787C15.3161 34.4413 15 35.2044 15 36M7.5 36H15H7.5ZM33 24H40.5H33ZM33 24C33 24.7956 32.6839 25.5587 32.1213 26.1213C31.5587 26.6839 30.7956 27 30 27C29.2044 27 28.4413 26.6839 27.8787 26.1213C27.3161 25.5587 27 24.7956 27 24M33 24C33 23.2044 32.6839 22.4413 32.1213 21.8787C31.5587 21.3161 30.7956 21 30 21C29.2044 21 28.4413 21.3161 27.8787 21.8787C27.3161 22.4413 27 23.2044 27 24M7.5 24H27H7.5Z" fill="#22482E"/>
<path d="M21 12H40.5M21 12C21 12.7956 20.6839 13.5587 20.1213 14.1213C19.5587 14.6839 18.7956 15 18 15C17.2044 15 16.4413 14.6839 15.8787 14.1213C15.3161 13.5587 15 12.7956 15 12M21 12C21 11.2044 20.6839 10.4413 20.1213 9.87868C19.5587 9.31607 18.7956 9 18 9C17.2044 9 16.4413 9.31607 15.8787 9.87868C15.3161 10.4413 15 11.2044 15 12M15 12H7.5M21 36H40.5M21 36C21 36.7956 20.6839 37.5587 20.1213 38.1213C19.5587 38.6839 18.7956 39 18 39C17.2044 39 16.4413 38.6839 15.8787 38.1213C15.3161 37.5587 15 36.7956 15 36M21 36C21 35.2044 20.6839 34.4413 20.1213 33.8787C19.5587 33.3161 18.7956 33 18 33C17.2044 33 16.4413 33.3161 15.8787 33.8787C15.3161 34.4413 15 35.2044 15 36M15 36H7.5M33 24H40.5M33 24C33 24.7956 32.6839 25.5587 32.1213 26.1213C31.5587 26.6839 30.7956 27 30 27C29.2044 27 28.4413 26.6839 27.8787 26.1213C27.3161 25.5587 27 24.7956 27 24M33 24C33 23.2044 32.6839 22.4413 32.1213 21.8787C31.5587 21.3161 30.7956 21 30 21C29.2044 21 28.4413 21.3161 27.8787 21.8787C27.3161 22.4413 27 23.2044 27 24M27 24H7.5" stroke="#86B887" stroke-width="1.5" stroke-linecap="round" stroke-linejoin="round"/>
</svg>
