<svg width="48" height="48" viewBox="0 0 48 48" fill="none" xmlns="http://www.w3.org/2000/svg">
<rect width="48" height="48" rx="5" fill="#86B887"/>
<path d="M4.5 4.5C4.10218 4.5 3.72064 4.65804 3.43934 4.93934C3.15804 5.22064 3 5.60218 3 6C3 6.39782 3.15804 6.77936 3.43934 7.06066C3.72064 7.34196 4.10218 7.5 4.5 7.5H7.272C7.612 7.5 7.908 7.728 7.996 8.056L13.112 27.24C11.5051 27.6587 10.0825 28.5985 9.06699 29.9122C8.05145 31.226 7.50035 32.8395 7.5 34.5C7.5 35.328 8.172 36 9 36H40.5C40.8978 36 41.2794 35.842 41.5607 35.5607C41.842 35.2794 42 34.8978 42 34.5C42 34.1022 41.842 33.7206 41.5607 33.4393C41.2794 33.158 40.8978 33 40.5 33H10.756C11.0663 32.1224 11.641 31.3627 12.4011 30.8254C13.1612 30.2881 14.0692 29.9997 15 30H37.436C37.717 30 37.9924 29.9211 38.2307 29.7722C38.469 29.6233 38.6607 29.4105 38.784 29.158C41.0674 24.4722 43.0448 19.6434 44.704 14.702C44.7696 14.5065 44.7941 14.2996 44.7761 14.0942C44.7581 13.8888 44.698 13.6894 44.5995 13.5083C44.5009 13.3271 44.3661 13.1683 44.2034 13.0416C44.0408 12.9149 43.8537 12.8232 43.654 12.772C33.1056 10.0823 22.2441 8.81971 11.36 9.018L10.896 7.284C10.6831 6.48548 10.2124 5.77965 9.55707 5.2762C8.90171 4.77275 8.09841 4.49988 7.272 4.5H4.5ZM7.5 40.5C7.5 39.7043 7.81607 38.9413 8.37868 38.3787C8.94129 37.8161 9.70435 37.5 10.5 37.5C11.2956 37.5 12.0587 37.8161 12.6213 38.3787C13.1839 38.9413 13.5 39.7043 13.5 40.5C13.5 41.2957 13.1839 42.0587 12.6213 42.6213C12.0587 43.1839 11.2956 43.5 10.5 43.5C9.70435 43.5 8.94129 43.1839 8.37868 42.6213C7.81607 42.0587 7.5 41.2957 7.5 40.5ZM33 40.5C33 39.7043 33.3161 38.9413 33.8787 38.3787C34.4413 37.8161 35.2043 37.5 36 37.5C36.7957 37.5 37.5587 37.8161 38.1213 38.3787C38.6839 38.9413 39 39.7043 39 40.5C39 41.2957 38.6839 42.0587 38.1213 42.6213C37.5587 43.1839 36.7957 43.5 36 43.5C35.2043 43.5 34.4413 43.1839 33.8787 42.6213C33.3161 42.0587 33 41.2957 33 40.5Z" fill="#22482E"/>
</svg>
