<svg width="48" height="48" viewBox="0 0 48 48" fill="none" xmlns="http://www.w3.org/2000/svg">
<rect width="48" height="48" rx="5" fill="#86B887"/>
<path d="M34.118 31.042C35.0536 30.4031 36.1509 30.0421 37.2831 30.0009C38.4153 29.9596 39.536 30.2397 40.5156 30.8088C41.4952 31.3779 42.2937 32.2128 42.8186 33.2167C43.3436 34.2207 43.5736 35.3528 43.482 36.482C41.0823 37.3207 38.5335 37.647 36 37.44C35.9922 35.1732 35.3394 32.9535 34.118 31.044C33.0338 29.3436 31.5382 27.9441 29.7696 26.975C28.0011 26.0059 26.0166 25.4986 24 25.5C21.9836 25.499 19.9996 26.0064 18.2314 26.9755C16.4632 27.9445 14.968 29.3439 13.884 31.044M35.998 37.438L36 37.5C36 37.95 35.976 38.394 35.926 38.832C32.2967 40.9142 28.1841 42.0067 24 42C19.66 42 15.586 40.848 12.074 38.832C12.0226 38.3691 11.9978 37.9037 12 37.438M12 37.438C9.46723 37.6525 6.91979 37.3274 4.52197 36.484C4.43067 35.3551 4.66076 34.2234 5.18563 33.2198C5.7105 32.2162 6.50871 31.3816 7.48797 30.8126C8.46724 30.2435 9.58756 29.9633 10.7194 30.0043C11.8513 30.0452 12.9484 30.4057 13.884 31.044M12 37.438C12.0072 35.1714 12.6632 32.9537 13.884 31.044M30 13.5C30 15.0913 29.3678 16.6174 28.2426 17.7426C27.1174 18.8679 25.5913 19.5 24 19.5C22.4087 19.5 20.8825 18.8679 19.7573 17.7426C18.6321 16.6174 18 15.0913 18 13.5C18 11.9087 18.6321 10.3826 19.7573 9.25736C20.8825 8.13214 22.4087 7.5 24 7.5C25.5913 7.5 27.1174 8.13214 28.2426 9.25736C29.3678 10.3826 30 11.9087 30 13.5ZM42 19.5C42 20.0909 41.8836 20.6761 41.6574 21.2221C41.4313 21.768 41.0998 22.2641 40.6819 22.682C40.2641 23.0998 39.768 23.4313 39.222 23.6575C38.6761 23.8836 38.0909 24 37.5 24C36.909 24 36.3239 23.8836 35.7779 23.6575C35.2319 23.4313 34.7359 23.0998 34.318 22.682C33.9001 22.2641 33.5687 21.768 33.3425 21.2221C33.1164 20.6761 33 20.0909 33 19.5C33 18.3065 33.4741 17.1619 34.318 16.318C35.1619 15.4741 36.3065 15 37.5 15C38.6934 15 39.838 15.4741 40.6819 16.318C41.5259 17.1619 42 18.3065 42 19.5ZM15 19.5C15 20.0909 14.8836 20.6761 14.6574 21.2221C14.4313 21.768 14.0998 22.2641 13.682 22.682C13.2641 23.0998 12.768 23.4313 12.222 23.6575C11.6761 23.8836 11.0909 24 10.5 24C9.90902 24 9.32386 23.8836 8.77789 23.6575C8.23193 23.4313 7.73585 23.0998 7.31799 22.682C6.90013 22.2641 6.56866 21.768 6.34251 21.2221C6.11637 20.6761 5.99997 20.0909 5.99997 19.5C5.99997 18.3065 6.47408 17.1619 7.31799 16.318C8.1619 15.4741 9.3065 15 10.5 15C11.6934 15 12.838 15.4741 13.682 16.318C14.5259 17.1619 15 18.3065 15 19.5Z" stroke="#22482E" stroke-width="1.5" stroke-linecap="round" stroke-linejoin="round"/>
</svg>
