<svg width="48" height="48" viewBox="0 0 48 48" fill="none" xmlns="http://www.w3.org/2000/svg">
<rect width="48" height="48" rx="5" fill="#86B887"/>
<path d="M16.5 18V10.5C16.5 9.30653 16.9741 8.16193 17.818 7.31802C18.6619 6.47411 19.8065 6 21 6H33C34.1935 6 35.3381 6.47411 36.182 7.31802C37.0259 8.16193 37.5 9.30653 37.5 10.5V37.5C37.5 38.6935 37.0259 39.8381 36.182 40.682C35.3381 41.5259 34.1935 42 33 42H21C19.8065 42 18.6619 41.5259 17.818 40.682C16.9741 39.8381 16.5 38.6935 16.5 37.5V30M10.5 30L4.5 24M4.5 24L10.5 18M4.5 24H30" stroke="#22482E" stroke-width="1.5" stroke-linecap="round" stroke-linejoin="round"/>
</svg>
