<svg width="48" height="48" viewBox="0 0 48 48" fill="none" xmlns="http://www.w3.org/2000/svg">
<rect width="48" height="48" rx="5" fill="#22482E"/>
<path fill-rule="evenodd" clip-rule="evenodd" d="M23.656 4.5C21.824 4.5 20.258 5.826 19.956 7.634L19.774 8.732C19.7236 9.00762 19.6014 9.26509 19.4199 9.47855C19.2384 9.692 19.0039 9.85391 18.74 9.948C18.4168 10.0689 18.098 10.201 17.784 10.344C17.5308 10.4644 17.2503 10.5159 16.9708 10.4935C16.6914 10.471 16.4227 10.3753 16.192 10.216L15.286 9.568C14.5636 9.05187 13.6815 8.8088 12.7967 8.88205C11.9118 8.9553 11.0817 9.34011 10.454 9.968L9.968 10.454C9.34011 11.0817 8.9553 11.9118 8.88205 12.7967C8.8088 13.6815 9.05187 14.5636 9.568 15.286L10.216 16.192C10.3753 16.4227 10.471 16.6914 10.4935 16.9708C10.5159 17.2503 10.4644 17.5308 10.344 17.784C10.201 18.098 10.0689 18.4168 9.948 18.74C9.85391 19.0039 9.692 19.2384 9.47855 19.4199C9.26509 19.6014 9.00762 19.7236 8.732 19.774L7.632 19.958C6.75684 20.1042 5.96187 20.556 5.38842 21.2331C4.81496 21.9102 4.50017 22.7687 4.5 23.656V24.344C4.5 26.176 5.826 27.742 7.634 28.044L8.732 28.226C9.294 28.32 9.748 28.726 9.948 29.26C10.068 29.584 10.202 29.902 10.344 30.216C10.4644 30.4692 10.5159 30.7497 10.4935 31.0292C10.471 31.3086 10.3753 31.5773 10.216 31.808L9.568 32.714C9.05187 33.4364 8.8088 34.3185 8.88205 35.2033C8.9553 36.0882 9.34011 36.9183 9.968 37.546L10.454 38.032C11.75 39.328 13.794 39.498 15.286 38.432L16.192 37.784C16.4227 37.6247 16.6914 37.529 16.9708 37.5065C17.2503 37.4841 17.5308 37.5356 17.784 37.656C18.098 37.798 18.416 37.93 18.74 38.052C19.274 38.252 19.68 38.706 19.774 39.268L19.958 40.368C20.258 42.174 21.822 43.5 23.656 43.5H24.344C26.176 43.5 27.742 42.174 28.044 40.366L28.226 39.268C28.2764 38.9924 28.3986 38.7349 28.5801 38.5215C28.7616 38.308 28.9961 38.1461 29.26 38.052C29.5831 37.931 29.902 37.7989 30.216 37.656C30.4692 37.5356 30.7497 37.4841 31.0292 37.5065C31.3086 37.529 31.5773 37.6247 31.808 37.784L32.714 38.432C33.4364 38.9481 34.3185 39.1912 35.2033 39.1179C36.0882 39.0447 36.9183 38.6599 37.546 38.032L38.032 37.546C39.328 36.25 39.498 34.206 38.432 32.714L37.784 31.808C37.6247 31.5773 37.529 31.3086 37.5065 31.0292C37.4841 30.7497 37.5356 30.4692 37.656 30.216C37.798 29.902 37.93 29.584 38.052 29.26C38.252 28.726 38.706 28.32 39.268 28.226L40.368 28.044C41.2435 27.8977 42.0387 27.4456 42.6122 26.7681C43.1857 26.0906 43.5003 25.2316 43.5 24.344V23.656C43.5 21.824 42.174 20.258 40.366 19.956L39.268 19.774C38.9924 19.7236 38.7349 19.6014 38.5215 19.4199C38.308 19.2384 38.1461 19.0039 38.052 18.74C37.931 18.4169 37.7989 18.098 37.656 17.784C37.5356 17.5308 37.4841 17.2503 37.5065 16.9708C37.529 16.6914 37.6247 16.4227 37.784 16.192L38.432 15.286C38.9481 14.5636 39.1912 13.6815 39.1179 12.7967C39.0447 11.9118 38.6599 11.0817 38.032 10.454L37.546 9.968C36.9183 9.34011 36.0882 8.9553 35.2033 8.88205C34.3185 8.8088 33.4364 9.05187 32.714 9.568L31.808 10.216C31.5773 10.3753 31.3086 10.471 31.0292 10.4935C30.7497 10.5159 30.4692 10.4644 30.216 10.344C29.902 10.201 29.5831 10.0689 29.26 9.948C28.9961 9.85391 28.7616 9.692 28.5801 9.47855C28.3986 9.26509 28.2764 9.00762 28.226 8.732L28.044 7.632C27.8977 6.7565 27.4456 5.96127 26.7681 5.38777C26.0906 4.81428 25.2316 4.4997 24.344 4.5H23.656ZM24 31.5C25.9891 31.5 27.8968 30.7098 29.3033 29.3033C30.7098 27.8968 31.5 25.9891 31.5 24C31.5 22.0109 30.7098 20.1032 29.3033 18.6967C27.8968 17.2902 25.9891 16.5 24 16.5C22.0109 16.5 20.1032 17.2902 18.6967 18.6967C17.2902 20.1032 16.5 22.0109 16.5 24C16.5 25.9891 17.2902 27.8968 18.6967 29.3033C20.1032 30.7098 22.0109 31.5 24 31.5Z" fill="#86B887"/>
</svg>
