<svg width="48" height="48" viewBox="0 0 48 48" fill="none" xmlns="http://www.w3.org/2000/svg">
<rect width="48" height="48" rx="5" fill="#86B887"/>
<path fill-rule="evenodd" clip-rule="evenodd" d="M9.696 6.042C14.4323 5.3468 19.213 4.99854 24 5C28.86 5 33.634 5.356 38.304 6.04C42.26 6.624 45 10.088 45 13.98V26.02C45 29.912 42.26 33.376 38.304 33.96C35.9965 34.2981 33.6777 34.5536 31.352 34.726C31.2337 34.7338 31.1186 34.7685 31.0157 34.8274C30.9128 34.8863 30.8246 34.9679 30.758 35.066L25.248 43.332C25.111 43.5374 24.9254 43.7059 24.7077 43.8224C24.49 43.9389 24.2469 43.9998 24 43.9998C23.7531 43.9998 23.51 43.9389 23.2923 43.8224C23.0746 43.7059 22.889 43.5374 22.752 43.332L17.242 35.066C17.1754 34.9679 17.0872 34.8863 16.9843 34.8274C16.8814 34.7685 16.7663 34.7338 16.648 34.726C14.3223 34.553 12.0034 34.2968 9.696 33.958C5.74 33.378 3 29.91 3 26.018V13.982C3 10.09 5.74 6.622 9.696 6.042ZM13.5 17C13.5 16.6022 13.658 16.2206 13.9393 15.9393C14.2206 15.658 14.6022 15.5 15 15.5H33C33.3978 15.5 33.7794 15.658 34.0607 15.9393C34.342 16.2206 34.5 16.6022 34.5 17C34.5 17.3978 34.342 17.7794 34.0607 18.0607C33.7794 18.342 33.3978 18.5 33 18.5H15C14.6022 18.5 14.2206 18.342 13.9393 18.0607C13.658 17.7794 13.5 17.3978 13.5 17ZM15 21.5C14.6022 21.5 14.2206 21.658 13.9393 21.9393C13.658 22.2206 13.5 22.6022 13.5 23C13.5 23.3978 13.658 23.7794 13.9393 24.0607C14.2206 24.342 14.6022 24.5 15 24.5H24C24.3978 24.5 24.7794 24.342 25.0607 24.0607C25.342 23.7794 25.5 23.3978 25.5 23C25.5 22.6022 25.342 22.2206 25.0607 21.9393C24.7794 21.658 24.3978 21.5 24 21.5H15Z" fill="#22482E"/>
</svg>
