<svg width="48" height="48" viewBox="0 0 48 48" fill="none" xmlns="http://www.w3.org/2000/svg">
<rect width="48" height="48" rx="5" fill="#22482E"/>
<path d="M37.5 25.5H40.5C40.8978 25.5 41.2794 25.342 41.5607 25.0607C41.842 24.7794 42 24.3978 42 24C42 23.6022 41.842 23.2206 41.5607 22.9393C41.2794 22.658 40.8978 22.5 40.5 22.5H37.5C37.1022 22.5 36.7206 22.658 36.4393 22.9393C36.158 23.2206 36 23.6022 36 24C36 24.3978 36.158 24.7794 36.4393 25.0607C36.7206 25.342 37.1022 25.5 37.5 25.5ZM24 12C24 11.6022 24.158 11.2206 24.4393 10.9393C24.7206 10.658 25.1022 10.5 25.5 10.5H40.5C40.8978 10.5 41.2794 10.658 41.5607 10.9393C41.842 11.2206 42 11.6022 42 12C42 12.3978 41.842 12.7794 41.5607 13.0607C41.2794 13.342 40.8978 13.5 40.5 13.5H25.5C25.1022 13.5 24.7206 13.342 24.4393 13.0607C24.158 12.7794 24 12.3978 24 12ZM24 36C24 35.6022 24.158 35.2206 24.4393 34.9393C24.7206 34.658 25.1022 34.5 25.5 34.5H40.5C40.8978 34.5 41.2794 34.658 41.5607 34.9393C41.842 35.2206 42 35.6022 42 36C42 36.3978 41.842 36.7794 41.5607 37.0607C41.2794 37.342 40.8978 37.5 40.5 37.5H25.5C25.1022 37.5 24.7206 37.342 24.4393 37.0607C24.158 36.7794 24 36.3978 24 36ZM7.5 13.5H10.5C10.8978 13.5 11.2794 13.342 11.5607 13.0607C11.842 12.7794 12 12.3978 12 12C12 11.6022 11.842 11.2206 11.5607 10.9393C11.2794 10.658 10.8978 10.5 10.5 10.5H7.5C7.10218 10.5 6.72064 10.658 6.43934 10.9393C6.15804 11.2206 6 11.6022 6 12C6 12.3978 6.15804 12.7794 6.43934 13.0607C6.72064 13.342 7.10218 13.5 7.5 13.5ZM10.5 37.5H7.5C7.10218 37.5 6.72064 37.342 6.43934 37.0607C6.15804 36.7794 6 36.3978 6 36C6 35.6022 6.15804 35.2206 6.43934 34.9393C6.72064 34.658 7.10218 34.5 7.5 34.5H10.5C10.8978 34.5 11.2794 34.658 11.5607 34.9393C11.842 35.2206 12 35.6022 12 36C12 36.3978 11.842 36.7794 11.5607 37.0607C11.2794 37.342 10.8978 37.5 10.5 37.5ZM6 24C6 23.6022 6.15804 23.2206 6.43934 22.9393C6.72064 22.658 7.10218 22.5 7.5 22.5H22.5C22.8978 22.5 23.2794 22.658 23.5607 22.9393C23.842 23.2206 24 23.6022 24 24C24 24.3978 23.842 24.7794 23.5607 25.0607C23.2794 25.342 22.8978 25.5 22.5 25.5H7.5C7.10218 25.5 6.72064 25.342 6.43934 25.0607C6.15804 24.7794 6 24.3978 6 24ZM18 7.5C16.8065 7.5 15.6619 7.97411 14.818 8.81802C13.9741 9.66193 13.5 10.8065 13.5 12C13.5 13.1935 13.9741 14.3381 14.818 15.182C15.6619 16.0259 16.8065 16.5 18 16.5C19.1935 16.5 20.3381 16.0259 21.182 15.182C22.0259 14.3381 22.5 13.1935 22.5 12C22.5 10.8065 22.0259 9.66193 21.182 8.81802C20.3381 7.97411 19.1935 7.5 18 7.5ZM25.5 24C25.5 22.8065 25.9741 21.6619 26.818 20.818C27.6619 19.9741 28.8065 19.5 30 19.5C31.1935 19.5 32.3381 19.9741 33.182 20.818C34.0259 21.6619 34.5 22.8065 34.5 24C34.5 25.1935 34.0259 26.3381 33.182 27.182C32.3381 28.0259 31.1935 28.5 30 28.5C28.8065 28.5 27.6619 28.0259 26.818 27.182C25.9741 26.3381 25.5 25.1935 25.5 24ZM18 31.5C16.8065 31.5 15.6619 31.9741 14.818 32.818C13.9741 33.6619 13.5 34.8065 13.5 36C13.5 37.1935 13.9741 38.3381 14.818 39.182C15.6619 40.0259 16.8065 40.5 18 40.5C19.1935 40.5 20.3381 40.0259 21.182 39.182C22.0259 38.3381 22.5 37.1935 22.5 36C22.5 34.8065 22.0259 33.6619 21.182 32.818C20.3381 31.9741 19.1935 31.5 18 31.5Z" fill="#86B887"/>
</svg>
