<svg width="48" height="48" viewBox="0 0 48 48" fill="none" xmlns="http://www.w3.org/2000/svg">
<rect x="0.5" y="0.5" width="47" height="47" rx="4.5" fill="#22482E"/>
<rect x="0.5" y="0.5" width="47" height="47" rx="4.5" stroke="#22482E"/>
<path d="M20.686 7.88C20.866 6.796 21.806 6 22.906 6H25.092C26.192 6 27.132 6.796 27.312 7.88L27.61 9.668C27.75 10.516 28.378 11.196 29.17 11.528C29.966 11.856 30.88 11.812 31.58 11.312L33.054 10.258C33.4876 9.94811 34.017 9.80214 34.5481 9.84609C35.0791 9.89004 35.5774 10.1211 35.954 10.498L37.5 12.046C38.28 12.824 38.38 14.05 37.74 14.946L36.686 16.42C36.186 17.12 36.142 18.032 36.472 18.828C36.802 19.622 37.482 20.248 38.332 20.388L40.118 20.688C41.204 20.868 41.998 21.806 41.998 22.906V25.094C41.998 26.194 41.204 27.134 40.118 27.314L38.33 27.612C37.482 27.752 36.802 28.378 36.472 29.172C36.142 29.968 36.186 30.88 36.686 31.58L37.74 33.056C38.38 33.95 38.278 35.176 37.5 35.956L35.952 37.502C35.5755 37.8784 35.0776 38.1091 34.547 38.1531C34.0164 38.197 33.4874 38.0514 33.054 37.742L31.578 36.688C30.878 36.188 29.966 36.144 29.172 36.474C28.376 36.804 27.752 37.484 27.61 38.332L27.312 40.12C27.132 41.204 26.192 42 25.092 42H22.904C21.804 42 20.866 41.204 20.684 40.12L20.388 38.332C20.246 37.484 19.62 36.804 18.826 36.472C18.03 36.144 17.118 36.188 16.418 36.688L14.942 37.742C14.048 38.382 12.822 38.28 12.042 37.502L10.496 35.954C10.1191 35.5773 9.88809 35.0791 9.84414 34.548C9.80019 34.0169 9.94616 33.4875 10.256 33.054L11.31 31.58C11.81 30.88 11.854 29.968 11.526 29.172C11.196 28.378 10.514 27.752 9.66605 27.612L7.87805 27.312C6.79405 27.132 5.99805 26.192 5.99805 25.094V22.906C5.99805 21.806 6.79405 20.866 7.87805 20.686L9.66605 20.388C10.514 20.248 11.196 19.622 11.526 18.828C11.856 18.032 11.812 17.12 11.31 16.42L10.258 14.944C9.94816 14.5105 9.80219 13.9811 9.84614 13.45C9.89009 12.9189 10.1211 12.4207 10.498 12.044L12.044 10.498C12.4207 10.1211 12.919 9.89004 13.45 9.84609C13.9811 9.80214 14.5105 9.94811 14.944 10.258L16.418 11.312C17.118 11.812 18.032 11.856 18.826 11.526C19.62 11.196 20.246 10.516 20.386 9.668L20.686 7.88Z" stroke="#86B887" stroke-width="1.5" stroke-linecap="round" stroke-linejoin="round"/>
<path d="M30 24C30 25.5913 29.3679 27.1174 28.2426 28.2426C27.1174 29.3679 25.5913 30 24 30C22.4087 30 20.8826 29.3679 19.7574 28.2426C18.6321 27.1174 18 25.5913 18 24C18 22.4087 18.6321 20.8826 19.7574 19.7574C20.8826 18.6321 22.4087 18 24 18C25.5913 18 27.1174 18.6321 28.2426 19.7574C29.3679 20.8826 30 22.4087 30 24Z" stroke="#86B887" stroke-width="1.5" stroke-linecap="round" stroke-linejoin="round"/>
</svg>
