<?xml version="1.0" encoding="UTF-8" standalone="no"?>
<!-- Created with Inkscape (http://www.inkscape.org/) -->

<svg
   version="1.1"
   id="svg1"
   width="10mm"
   height="10mm"
   viewBox="0 0 37.795275 37.795276"
   sodipodi:docname="project.svg"
   inkscape:version="1.4.2 (f4327f4, 2025-05-13)"
   xmlns:inkscape="http://www.inkscape.org/namespaces/inkscape"
   xmlns:sodipodi="http://sodipodi.sourceforge.net/DTD/sodipodi-0.dtd"
   xmlns="http://www.w3.org/2000/svg"
   xmlns:svg="http://www.w3.org/2000/svg">
  <defs
     id="defs1" />
  <sodipodi:namedview
     id="namedview1"
     pagecolor="#a9a9a9"
     bordercolor="#000000"
     borderopacity="0.25"
     inkscape:showpageshadow="2"
     inkscape:pageopacity="0.0"
     inkscape:pagecheckerboard="0"
     inkscape:deskcolor="#d1d1d1"
     showgrid="false"
     inkscape:zoom="15.794322"
     inkscape:cx="21.843293"
     inkscape:cy="19.469022"
     inkscape:window-width="1920"
     inkscape:window-height="986"
     inkscape:window-x="-11"
     inkscape:window-y="-11"
     inkscape:window-maximized="1"
     inkscape:current-layer="g1"
     inkscape:document-units="mm">
    <inkscape:page
       x="0"
       y="0"
       inkscape:label="1"
       id="page1"
       width="37.795273"
       height="37.795277"
       margin="0"
       bleed="0" />
  </sodipodi:namedview>
  <g
     id="g1"
     inkscape:groupmode="layer"
     inkscape:label="1">
    <path
       id="path13"
       style="fill:#04a300;fill-opacity:1;fill-rule:nonzero;stroke:none;stroke-width:1.34073"
       d="M 3.984169,0.02014731 C 3.30912,0.09396221 2.477364,0.3140646 2.016616,0.7489012 3.11491,2.6734558 4.862803,4.1349899 6.782138,5.1845029 8.049194,3.3807362 9.361788,1.6038115 10.890023,0.02014731 c -2.307755,0 -4.599438,0 -6.905854,0 z m 10.160553,0.0993145 C 12.297714,1.9447018 10.602056,3.8893878 9.136772,6.0595444 13.584861,7.223135 18.182959,6.4742497 22.609617,5.8179685 27.371121,5.0113735 32.163431,4.2557779 36.997261,4.4235388 37.67231,4.5966682 37.897326,4.2557779 37.67231,3.5793654 37.364252,1.4092086 35.171683,-0.19995516 33.005901,0.02014731 c -6.246878,0 -12.489738,0 -18.736616,0 l -0.07233,0.0577098 -0.07366,0.0738149 z M 0.33703097,2.7459285 c -0.533074,1.5098494 -0.188853,3.145855 -0.293325,4.7026773 0,2.7794652 0,5.5777192 0,8.3518162 0.879974,0.07381 1.70637303,0.126157 2.60108003,0.09932 C 3.256884,12.948487 4.250706,10.075076 5.5633,7.3747939 5.343642,7.0352426 4.690023,6.8151402 4.302942,6.494381 2.769349,5.4730519 1.409876,4.1833051 0.38390897,2.6211143 l -0.07367,0.099315 z M 33.643448,6.9560594 c -2.678764,0 -5.305293,0.4455733 -7.946554,0.8549102 C 21.583651,8.424304 17.477105,9.2778721 13.316984,9.1007164 11.496763,8.9852968 9.649755,8.7651943 7.897843,8.2042014 6.662933,10.787722 5.590088,13.341717 5.082462,16.141312 c 5.299936,0.707281 10.621301,1.441403 15.84757,2.584862 5.687017,1.2213 11.300368,2.778123 16.794514,4.675836 0,-5.510615 0,-10.983651 0,-16.4620556 -1.364831,0 -2.720286,0 -4.081098,0 z M 0.04370597,28.099319 C 0.78170597,27.689982 1.602747,27.516852 2.335389,27.15583 2.0943,24.424681 1.995186,21.697558 2.263059,18.966408 2.555045,18.237654 1.84919,18.311469 1.289329,18.284627 c -0.53441403,0 -1.50680503,-0.413363 -1.24562603,0.48852 0,3.119013 0,6.232658 0,9.326172 z M 4.668593,18.773147 c -0.15135,2.604993 -0.198229,5.211329 0.06831,7.821691 -0.06831,0.64957 0.853186,0.220103 1.245625,0.36639 4.007432,0.241576 7.539382,2.458706 10.792742,4.603362 2.894405,1.971528 5.634781,4.163158 8.45552,6.207159 2.966731,-0.07381 5.928105,0.07919 8.873407,-0.07381 2.212658,-0.267076 3.886886,-2.453338 3.672586,-4.675836 0,-2.337917 0,-4.702677 0,-7.040594 C 28.364943,22.599445 18.649064,20.407814 8.776478,19.092569 7.415666,18.919439 6.076284,18.677863 4.716811,18.605391 V 18.77852 H 4.653861 Z M 5.323551,30.19566 c 0.632188,2.606335 1.480017,5.138856 2.599741,7.576089 4.473536,0 8.947072,0 13.393822,0 -3.573472,-2.631835 -7.094708,-5.557588 -11.132946,-7.334513 -1.575113,-0.748885 -3.333721,-1.13809 -5.080276,-1.215932 0.07233,0.319418 0.145993,0.65494 0.219659,0.974356 z M 2.576478,29.567563 c -0.873277,0.283181 -1.74789403,0.654939 -2.53277203,1.142117 0.07902,1.776925 -0.354936,3.822268 0.879974,5.337485 C 1.870624,37.430858 3.649323,37.912668 5.249885,37.771749 5.422665,37.603988 4.961918,36.990654 4.888252,36.676605 3.89443,34.38566 3.282332,31.925612 2.697022,29.540722 h -0.08974 z" />
  </g>
</svg>
